<svg width="250" height="250" xmlns="http://www.w3.org/2000/svg" fill="none">
 <g>
  <title>Layer 1</title>
  <g stroke="null">
   <path stroke="null" fill="#BEA69E" d="m181.90343,182.81335c0,17.13087 -13.93561,31.06696 -31.06647,31.06696c-17.13087,0 -31.0613,-13.93609 -31.0613,-31.06696c0,-17.13087 13.93043,-31.0666 31.0613,-31.0666c17.13087,0 31.06647,13.94103 31.06647,31.0666zm65.24875,-44.11309l0,88.23678c0,11.7637 -9.53761,21.30011 -21.30011,21.30011l-150.02986,0c-11.76322,0 -21.30047,-9.53641 -21.30047,-21.30011l0,-88.23678c0,-11.76322 9.53725,-21.30047 21.30047,-21.30047l26.19955,0l0,-7.36992c0,-10.29345 8.33909,-18.63784 18.63784,-18.63784l60.35533,0c10.29851,-0.00012 18.637,8.34439 18.637,18.63784l0,7.36462l26.20015,0c11.7625,0.0053 21.30011,9.54255 21.30011,21.30577zm-49.27366,44.11309c0,-25.93853 -21.10267,-47.04192 -47.04156,-47.04192c-25.93323,0 -47.03662,21.10339 -47.03662,47.04192c0,25.93817 21.10339,47.04204 47.03662,47.04204c25.93889,0 47.04156,-21.10387 47.04156,-47.04204z"/>
  </g>
  <path transform="rotate(-30.413 61.4598 77.0374)" stroke="null" fill-rule="evenodd" clip-rule="evenodd" d="m91.21506,81.13535l9.89914,35.56605l43.83351,4.3998c-6.84395,12.55144 -24.92326,21.86136 -53.58996,18.20521c-26.49953,-3.37917 -29.29284,9.89914 -47.23954,9.89914c-55.45665,0 -66.14643,-44.86086 -66.14643,-44.86086l38.67327,3.88109l-1.19186,-16.55676c0,0 19.12009,-23.06815 23.65922,-63.42346c20.02993,-33.74805 60.79483,-27.82737 75.0753,-2.10169l-23.42757,0.56572c1.64846,6.06001 -5.01419,11.6332 -10.26509,11.99916l6.43099,18.38987l8.82478,5.07127l-18.96901,14.02011l1.65014,5.36l12.7831,-0.41463l-0.00001,-0.00002zm-43.13854,-24.92813l-2.47437,21.44152l20.42442,3.54536l1.64846,-5.36l-19.59851,-19.62688zm-11.43344,47.65233l1.77772,3.75183c23.80862,0 36.26941,-5.27103 36.26941,-5.27103l14.36609,6.25977l1.62328,-2.47772c-9.59026,-17.2853 -35.50058,-16.20759 -54.03649,-2.26285l0,-0.00001z" fill="#000000" id="svg_1"/>
 </g>

</svg>