<svg aria-hidden="true" style="position: absolute; width: 0; height: 0; overflow: hidden;" version="1.1"
        xmlns="http://www.w3.org/2000/svg" xmlns:xlink="http://www.w3.org/1999/xlink">
        
        <defs>

        <!-- header -->

        <symbol id='logo-icon' viewBox="0 0 127 20"><g><path d="M10.33 11.08h-7v6.61H0V2h11.34v2.74h-8v3.57h7v2.77ZM17.09 15.42c1.9 0 2.85-1.18 2.85-3.54 0-2.36-.96-3.52-2.85-3.52-1.9 0-2.85 1.16-2.85 3.52 0 2.36.96 3.54 2.85 3.54Zm0 2.58c-3.81 0-6.07-2.5-6.07-6.12 0-3.69 2.33-6.12 6.07-6.12 3.7 0 6 2.4 6 6.12 0 3.69-2.33 6.12-6 6.12ZM31.7 13.49h3.13C34.5 16.18 32.27 18 29.42 18 26.2 18 24 15.9 24 11.74s2.2-5.98 5.51-5.98c3.07 0 5.16 1.72 5.35 4.46h-3.14c-.17-1.2-1.06-1.91-2.23-1.91-1.32 0-2.4.83-2.4 3.36s1.08 3.75 2.3 3.75c1.22 0 2.18-.68 2.3-1.93ZM46.38 17.7h-2.95v-1.64A3.99 3.99 0 0 1 39.76 18c-2.35 0-4-1.73-4-4.28V6.06h3.11v7.19c0 1.46.67 2.17 2 2.17 1.58 0 2.41-1.1 2.41-2.64V6.06h3.1V17.7ZM57.84 9.59h-3c-.17-1.14-.79-1.54-2.2-1.54-1.18 0-1.85.28-1.85.97 0 .68.65.97 1.92 1.32 1.34.38 2.61.64 3.52 1 1.25.5 1.94 1.3 1.94 2.8 0 2.42-1.8 3.86-5.15 3.86-3.62 0-5.64-1.68-5.68-4.04h3.21c0 1.09.94 1.72 2.45 1.72 1.1 0 2.08-.33 2.08-1.2 0-.83-.89-1.09-1.9-1.32-1.98-.48-3.09-.8-3.92-1.33a2.88 2.88 0 0 1-1.5-2.62c0-1.96 1.38-3.45 4.97-3.45 3.4 0 4.94 1.32 5.1 3.83ZM62.31 17.7h-3.33v-3.2h3.33v3.2ZM73.79 11.08h-7v6.61h-3.34V2H74.8v2.74h-8.01v3.57h7v2.77ZM78.28 17.7h-3.12V6.05h2.93v1.4c1.03-1.56 2.23-1.7 3.5-1.7h.4V8.9a5.32 5.32 0 0 0-.86-.07c-1.91 0-2.85.95-2.85 2.81v6.05ZM89.43 13.27l.02-1.27c-.31.3-.86.47-2.01.68-1.78.33-2.35.83-2.35 1.82 0 .88.52 1.3 1.5 1.3 1.61 0 2.81-1.16 2.84-2.53Zm3.14 4.42h-2.9c-.1-.28-.17-.68-.2-1.04A4.8 4.8 0 0 1 85.9 18c-2.68 0-3.93-1.3-3.93-3.19 0-3.36 2.28-3.73 5.42-4.16 1.56-.21 1.99-.52 1.99-1.32 0-.76-.77-1.2-2-1.2-1.4 0-1.98.68-2.13 1.72h-2.9c.05-2.41 1.4-4.1 5.18-4.1 3.74 0 5.04 1.66 5.04 4.6v7.34ZM110.82 17.7h-3.04v-7.05c0-1.4-.75-2.39-1.85-2.39-1.15 0-1.99 1.07-1.99 2.48v6.95h-3.12v-7c0-1.86-.5-2.33-1.87-2.33-1.24 0-1.9.75-1.9 2.27v7.06h-3.1V6.06h2.92v1.7c.79-1.53 1.9-2 3.45-2 1.6 0 2.37.5 3.29 1.84.64-1.28 1.7-1.84 3.18-1.84 2.38 0 4.03 1.7 4.03 3.87v8.06ZM114.97 10.74h4.82c-.05-1.72-1.2-2.55-2.43-2.55-1.24 0-2.27.95-2.4 2.55Zm8.03 1.94h-8.13c.1 1.75 1.1 2.89 2.64 2.89 1 0 1.9-.5 2.1-1.3h3.22a5.1 5.1 0 0 1-5.18 3.73c-3.93 0-5.9-2.13-5.9-6.33 0-3.6 2.1-5.91 5.71-5.91 3.62 0 5.54 2.31 5.54 6.92Z"/></g></symbol>

        <symbol id='camera-icon' viewBox="0 0 16 16"><g clip-path="url(#a)"><path d="M10.5 8.5a2.5 2.5 0 1 1-5 0 2.5 2.5 0 0 1 5 0Z"/><path d="M2 4a2 2 0 0 0-2 2v6a2 2 0 0 0 2 2h12a2 2 0 0 0 2-2V6a2 2 0 0 0-2-2h-1.17a2 2 0 0 1-1.42-.59l-.82-.82A2 2 0 0 0 9.17 2H6.83a2 2 0 0 0-1.42.59l-.82.82A2 2 0 0 1 3.17 4H2Zm.5 2a.5.5 0 1 1 0-1 .5.5 0 0 1 0 1Zm9 2.5a3.5 3.5 0 1 1-7 0 3.5 3.5 0 0 1 7 0Z"/></g><defs><clipPath id="a"><path d="M0 0h16v16H0z"/></clipPath></defs></symbol>

        <symbol id='open-menu-mob' viewBox="0 0 32 22"><g stroke-width="2" stroke-linecap="round"><path d="M5.87 3.667H31M5.87 17H31M13.522 10.333H31"/></g></symbol>
        
        <symbol id='close-menu-mob' viewBox="0 0 32 32"><g stroke-width="3" stroke-linecap="round" stroke-linejoin="round"><path d="M24 8 8 24M8 8l16 16"/></g></symbol>
        
        <!-- hero -->
 
        <symbol id='side-arr-icon' viewBox="0 0 18 10"><path fill-rule="evenodd" clip-rule="evenodd" d="M12.5.67 18 5l-5.5 4.33V5.75H0v-1.5h12.5V.67Z"/></symbol>

        <symbol id='hero-star-icon' viewBox="0 0 20 20"><path d="m10 1.667 2.575 5.216 5.758.842-4.166 4.058.983 5.734L10 14.808l-5.15 2.709.983-5.734-4.166-4.058 5.758-.842L10 1.667Z" stroke-width="1.5" stroke-linecap="round" stroke-linejoin="round"/></symbol>
        
        <!-- our courses -->

        <symbol id="up-arr-icon" viewBox="0 0 20 20"><g stroke-width="1.3" stroke-linecap="round" stroke-linejoin="round"><path d="M5 15 15 5M8.33 5H15v6.67"/></g></symbol>

        <!-- reviews -->

        <symbol id='rev-star-icon' viewBox="0 0 16 16"><path d="m8 2 1.854 3.95L14 6.587l-3 3.072.708 4.341L8 11.95 4.292 14 5 9.66 2 6.586l4.146-.637L8 2Z" stroke-width="1.5" stroke-linecap="round" stroke-linejoin="round"/></symbol>

        </defs>
</svg>
